<svg width="55" height="55" viewBox="0 0 55 55" fill="none" xmlns="http://www.w3.org/2000/svg">
<path d="M38.1833 28.1438C38.1833 27.4158 38.1243 26.6839 37.9984 25.9677H27.8969V30.0917H33.6816C33.4415 31.4218 32.6702 32.5984 31.5408 33.3461V36.0219H34.992C37.0185 34.1567 38.1833 31.4021 38.1833 28.1438Z" fill="#4285F4"/>
<path d="M27.897 38.6072C30.7854 38.6072 33.2212 37.6588 34.9959 36.0218L31.5448 33.3459C30.5847 33.9991 29.3451 34.369 27.9009 34.369C25.107 34.369 22.738 32.4841 21.888 29.9499H18.3268V32.7084C20.1448 36.3248 23.8477 38.6072 27.897 38.6072Z" fill="#34A853"/>
<path d="M21.8841 29.9499C21.4355 28.6199 21.4355 27.1796 21.8841 25.8495V23.091H18.3267C16.8078 26.1171 16.8078 29.6823 18.3267 32.7085L21.8841 29.9499Z" fill="#FBBC04"/>
<path d="M27.897 21.4264C29.4238 21.4028 30.8995 21.9773 32.0052 23.0319L35.0628 19.9744C33.1268 18.1563 30.5571 17.1568 27.897 17.1883C23.8477 17.1883 20.1448 19.4707 18.3268 23.091L21.8841 25.8495C22.7302 23.3113 25.103 21.4264 27.897 21.4264Z" fill="#EA4335"/>
</svg>
