<svg width="30" height="26" viewBox="0 0 30 26" fill="none" xmlns="http://www.w3.org/2000/svg">
<path d="M16.2441 3.35742C19.0535 0.548142 23.6086 0.548142 26.418 3.35742C29.2267 6.16668 29.2268 10.7211 26.418 13.5303L15.418 24.5303C15.2774 24.6709 15.0865 24.7499 14.8877 24.75C14.6889 24.75 14.4981 24.6708 14.3574 24.5303L3.35742 13.5303C0.548146 10.7209 0.548131 6.16671 3.35742 3.35742C6.16671 0.548133 10.721 0.54814 13.5303 3.35742L14.8867 4.71387L16.2441 3.35742Z" stroke="black" stroke-width="1.5" stroke-linecap="round" stroke-linejoin="round"/>
<path d="M17.3047 4.41797C19.5282 2.19449 23.1329 2.1945 25.3564 4.41797C27.58 6.64148 27.5799 10.2463 25.3564 12.4697L14.8867 22.9385L4.41797 12.4697C2.19449 10.2463 2.19448 6.64148 4.41797 4.41797C6.64147 2.19448 10.2462 2.19448 12.4697 4.41797L14.3564 6.30469L14.8877 6.83496L17.3047 4.41797Z" fill="black" stroke="black" stroke-width="1.5"/>
</svg>
